# Blender v2.82 (sub 7) OBJ File: ''
# www.blender.org
mtllib CutTest.mtl
o Cube
v 1.000000 1.000000 -1.000000
v 1.000000 -1.000000 -1.000000
v 1.000000 -1.000000 1.000000
v -1.000000 1.000000 -1.000000
v -1.000000 -1.000000 -1.000000
v -1.000000 -1.000000 1.000000
v -1.000000 -1.000000 0.000000
v 0.000000 -1.000000 -1.000000
v 1.000000 0.000000 -1.000000
v -1.000000 0.000000 -1.000000
v 0.000000 -1.000000 1.000000
v 0.000000 1.000000 -1.000000
v 1.000000 -1.000000 0.000000
v 0.000000 0.000000 -1.000000
v 0.000000 -1.000000 0.000000
v -1.000000 -1.000000 0.500000
v -0.500000 -1.000000 -1.000000
v 1.000000 -0.500000 -1.000000
v -1.000000 -0.500000 -1.000000
v 0.500000 -1.000000 1.000000
v 0.500000 1.000000 -1.000000
v 1.000000 -1.000000 -0.500000
v -1.000000 -1.000000 -0.500000
v 0.500000 -1.000000 -1.000000
v 1.000000 0.500000 -1.000000
v -1.000000 0.500000 -1.000000
v -0.500000 -1.000000 1.000000
v -0.500000 1.000000 -1.000000
v 1.000000 -1.000000 0.500000
v 0.500000 0.000000 -1.000000
v -0.500000 0.000000 -1.000000
v 0.000000 -0.500000 -1.000000
v 0.000000 0.500000 -1.000000
v 0.000000 -1.000000 0.500000
v 0.000000 -1.000000 -0.500000
v -0.500000 -1.000000 0.000000
v 0.500000 -1.000000 0.000000
v 0.500000 -1.000000 -0.500000
v -0.500000 -1.000000 -0.500000
v -0.500000 -1.000000 0.500000
v -0.500000 0.500000 -1.000000
v -0.500000 -0.500000 -1.000000
v 0.500000 -0.500000 -1.000000
v 0.500000 0.500000 -1.000000
v 0.500000 -1.000000 0.500000
vt 0.312500 0.687500
vt 0.375000 0.687500
vt 0.375000 0.750000
vt 0.312500 0.750000
vt 0.562500 0.437500
vt 0.625000 0.437500
vt 0.625000 0.500000
vt 0.562500 0.500000
vt 0.437500 0.437500
vt 0.500000 0.437500
vt 0.500000 0.500000
vt 0.437500 0.500000
vt 0.437500 0.312500
vt 0.500000 0.312500
vt 0.500000 0.375000
vt 0.437500 0.375000
vt 0.562500 0.312500
vt 0.625000 0.312500
vt 0.625000 0.375000
vt 0.562500 0.375000
vt 0.187500 0.687500
vt 0.250000 0.687500
vt 0.250000 0.750000
vt 0.187500 0.750000
vt 0.187500 0.562500
vt 0.250000 0.562500
vt 0.250000 0.625000
vt 0.187500 0.625000
vt 0.312500 0.562500
vt 0.375000 0.562500
vt 0.375000 0.625000
vt 0.312500 0.625000
vt 0.250000 0.500000
vt 0.312500 0.500000
vt 0.375000 0.500000
vt 0.125000 0.562500
vt 0.125000 0.625000
vt 0.125000 0.500000
vt 0.187500 0.500000
vt 0.125000 0.687500
vt 0.125000 0.750000
vt 0.500000 0.250000
vt 0.562500 0.250000
vt 0.625000 0.250000
vt 0.375000 0.312500
vt 0.375000 0.375000
vt 0.375000 0.250000
vt 0.437500 0.250000
vt 0.375000 0.437500
vn 0.0000 -1.0000 0.0000
vn 0.0000 0.0000 -1.0000
usemtl Material
s off
f 45/1/1 29/2/1 3/3/1 20/4/1
f 44/5/2 21/6/2 1/7/2 25/8/2
f 43/9/2 30/10/2 9/11/2 18/12/2
f 42/13/2 31/14/2 14/15/2 32/16/2
f 41/17/2 28/18/2 12/19/2 33/20/2
f 40/21/1 34/22/1 11/23/1 27/24/1
f 39/25/1 35/26/1 15/27/1 36/28/1
f 38/29/1 22/30/1 13/31/1 37/32/1
f 35/26/1 38/29/1 37/32/1 15/27/1
f 8/33/1 24/34/1 38/29/1 35/26/1
f 24/34/1 2/35/1 22/30/1 38/29/1
f 23/36/1 39/25/1 36/28/1 7/37/1
f 5/38/1 17/39/1 39/25/1 23/36/1
f 17/39/1 8/33/1 35/26/1 39/25/1
f 16/40/1 40/21/1 27/24/1 6/41/1
f 7/37/1 36/28/1 40/21/1 16/40/1
f 36/28/1 15/27/1 34/22/1 40/21/1
f 31/14/2 41/17/2 33/20/2 14/15/2
f 10/42/2 26/43/2 41/17/2 31/14/2
f 26/43/2 4/44/2 28/18/2 41/17/2
f 17/45/2 42/13/2 32/16/2 8/46/2
f 5/47/2 19/48/2 42/13/2 17/45/2
f 19/48/2 10/42/2 31/14/2 42/13/2
f 24/49/2 43/9/2 18/12/2 2/35/2
f 8/46/2 32/16/2 43/9/2 24/49/2
f 32/16/2 14/15/2 30/10/2 43/9/2
f 30/10/2 44/5/2 25/8/2 9/11/2
f 14/15/2 33/20/2 44/5/2 30/10/2
f 33/20/2 12/19/2 21/6/2 44/5/2
f 34/22/1 45/1/1 20/4/1 11/23/1
f 15/27/1 37/32/1 45/1/1 34/22/1
f 37/32/1 13/31/1 29/2/1 45/1/1
